<svg xmlns="http://www.w3.org/2000/svg" width="24" height="24" fill="none"><g stroke="#2C2D35" stroke-linecap="round" stroke-linejoin="round" stroke-width="2" clip-path="url(#a)"><path d="M9.25 21.167a.917.917 0 1 0 0-1.834.917.917 0 0 0 0 1.834M19.333 21.167a.917.917 0 1 0 0-1.834.917.917 0 0 0 0 1.834M1.917 1.917h3.666L8.04 14.19a1.83 1.83 0 0 0 1.833 1.476h8.91a1.83 1.83 0 0 0 1.834-1.476L22.083 6.5H6.5"/></g><defs><clipPath id="a"><path fill="#fff" d="M1 1h22v22H1z"/></clipPath></defs></svg>